<svg xmlns="http://www.w3.org/2000/svg" viewBox="0 0 256 256" role="img" aria-label="Geometric five-point star grid">
  <defs>
    <linearGradient id="g" x1="0%" y1="0%" x2="100%" y2="100%">
      <stop offset="0%" stop-color="#D4AF37"/>
      <stop offset="100%" stop-color="#a8892d"/>
    </linearGradient>
  </defs>
  <rect width="256" height="256" fill="#0A0A0A" rx="24"/>
  <g fill="#ffffff" fill-opacity="0.12">
    <g id="grid">
      <polygon points="5,35 14,61 42,61 20,77 28,103 5,87 -18,103 -10,77 -32,61 -4,61" transform="translate(52 52) scale(0.7)"/>
    </g>
    <use href="#grid" x="0" y="0"/>
    <use href="#grid" x="72" y="0"/>
    <use href="#grid" x="144" y="0"/>
    <use href="#grid" x="0" y="72"/>
    <use href="#grid" x="72" y="72"/>
    <use href="#grid" x="144" y="72"/>
    <use href="#grid" x="0" y="144"/>
    <use href="#grid" x="72" y="144"/>
    <use href="#grid" x="144" y="144"/>
  </g>
  <polygon fill="url(#g)" points="128 24 153 92 226 92 168 136 190 204 128 162 66 204 88 136 30 92 103 92"/>
</svg>
